<?xml version="1.0" encoding="UTF-8" standalone="no"?>
<!-- Created with Inkscape (http://www.inkscape.org/) -->

<svg
   xmlns:osb="http://www.openswatchbook.org/uri/2009/osb"
   xmlns:dc="http://purl.org/dc/elements/1.1/"
   xmlns:cc="http://creativecommons.org/ns#"
   xmlns:rdf="http://www.w3.org/1999/02/22-rdf-syntax-ns#"
   xmlns:svg="http://www.w3.org/2000/svg"
   xmlns="http://www.w3.org/2000/svg"
   xmlns:sodipodi="http://sodipodi.sourceforge.net/DTD/sodipodi-0.dtd"
   xmlns:inkscape="http://www.inkscape.org/namespaces/inkscape"
   width="64.733337mm"
   height="64.733337mm"
   viewBox="0 0 64.733337 64.733337"
   version="1.1"
   id="svg8"
   inkscape:version="0.92.3 (2405546, 2018-03-11)"
   sodipodi:docname="logo.svg">
  <defs
     id="defs2">
    <linearGradient
       id="linearGradient4539"
       osb:paint="solid"
       gradientTransform="matrix(0.25435494,0,0,0.25090442,77.034987,40.430042)">
      <stop
         style="stop-color:#222222;stop-opacity:1;"
         offset="0"
         id="stop4537" />
    </linearGradient>
  </defs>
  <sodipodi:namedview
     id="base"
     pagecolor="#464646"
     bordercolor="#666666"
     borderopacity="1.0"
     inkscape:pageopacity="1"
     inkscape:pageshadow="2"
     inkscape:zoom="1.4142136"
     inkscape:cx="134.0706"
     inkscape:cy="105.79714"
     inkscape:document-units="mm"
     inkscape:current-layer="layer1"
     showgrid="false"
     inkscape:snap-page="true"
     inkscape:window-width="1920"
     inkscape:window-height="1013"
     inkscape:window-x="-9"
     inkscape:window-y="-9"
     inkscape:window-maximized="1" />
  <metadata
     id="metadata5">
    <rdf:RDF>
      <cc:Work
         rdf:about="">
        <dc:format>image/svg+xml</dc:format>
        <dc:type
           rdf:resource="http://purl.org/dc/dcmitype/StillImage" />
        <dc:title></dc:title>
      </cc:Work>
    </rdf:RDF>
  </metadata>
  <g
     inkscape:label="Layer 1"
     inkscape:groupmode="layer"
     id="layer1"
     transform="translate(-76.144753,-39.592384)">
    <path
       style="display:inline;opacity:1;fill:#ffffff;fill-opacity:1;fill-rule:nonzero;stroke:none;stroke-width:2.75605941;stroke-linecap:round;stroke-linejoin:round;stroke-miterlimit:4;stroke-dasharray:none;stroke-dashoffset:1.36063004;stroke-opacity:1;paint-order:normal"
       d="m 122.37305,30.556641 a 91.868654,91.868654 0 0 0 -91.867191,91.869139 91.868654,91.868654 0 0 0 91.867191,91.86914 91.868654,91.868654 0 0 0 91.86914,-91.86914 91.868654,91.868654 0 0 0 -91.86914,-91.869139 z m 34.78711,36.367187 c 0.10741,0.0037 0.20507,0.02149 0.28515,0.05859 0.32013,0.148422 0.52345,0.132812 0.38281,0.40625 -0.14059,0.273449 -0.52344,1.031246 -0.51562,1.453125 0.008,0.421875 0.0303,0.929687 0.16406,1.0625 0.13266,0.132812 0.17213,0.320313 0.17969,1.71875 0.008,1.398436 0.24916,3.510396 0.55859,5.001953 0.30917,1.491553 0.56642,2.13086 0.34766,2.302734 -0.21883,0.171893 -0.53123,-0.101558 -0.57031,0.609375 -0.0389,0.710937 -0.24229,3.171875 -0.41407,6.03125 -0.17196,2.859375 -0.92183,7.312504 -0.73437,13.5625 0.18746,6.250015 0.68751,13.406255 1.34375,17.656255 0.65624,4.25 3.03298,13.23411 2.90039,14.58203 -0.13266,1.34793 -0.60878,2.01224 -1.01758,2.31055 -0.40879,0.29832 -0.27567,1.21511 -0.76172,0.99414 -0.48616,-0.22095 -0.77218,-0.31033 -0.8164,-0.56445 -0.0442,-0.2541 -0.19893,-0.53082 -0.80664,-0.65235 -0.60768,-0.12155 -1.4368,-0.199 -1.7793,-1.19336 -0.34243,-0.99437 -0.6875,-3.05468 -1.375,-5.17969 -0.68753,-2.12499 -3.60792,-11.95555 -5.77344,-18.98242 -2.16552,-7.02687 -4.46484,-13.832033 -4.46484,-13.832033 -0.003,-0.0016 -1.41374,-0.840613 -2.26367,-0.884765 -0.85074,-0.04418 -5.72258,-3.260013 -6.81641,-3.779297 -1.09379,-0.519281 -1.24901,-0.484949 -1.8125,-0.816407 -0.56349,-0.331464 -2.47521,-1.525046 -3.19336,-2.453124 -0.71815,-0.928079 -4.55189,-4.429842 -5.56836,-5.269532 -1.01646,-0.83969 -8.57613,-7.841797 -9.37305,-8.935547 -0.79683,-1.09375 -1.4988,-2.046608 -1.38281,-2.267578 0.11603,-0.220951 0.29739,-0.0556 0.46875,-0.199219 0.17122,-0.143622 -0.0544,-0.486107 0.33789,-0.546874 0.3922,-0.06077 0.76849,0.01085 1.10547,0.126953 0.33714,0.115993 0.70106,0.380644 0.82813,0.248047 0.12699,-0.132586 0.0394,-0.861723 0.6582,-0.900391 0.61875,-0.03866 0.81633,-0.07779 1.52344,0.121094 0.70711,0.198878 2.82972,0.995038 4.49804,1.138671 1.66833,0.143623 7.74412,1.185547 10.94727,1.185547 3.20311,0 9.84603,-0.744104 12.29883,-1.097656 2.45276,-0.353537 5.42775,-0.261724 5.84179,-0.441406 0.41409,-0.179679 2.91409,-1.726564 3.14063,-1.90625 0.22639,-0.179679 0.39844,-0.531251 0.6875,-0.554688 0.21685,-0.01757 0.61915,-0.124263 0.94141,-0.113281 z m -72.869144,0.521484 c 0.06348,-0.0133 0.144535,-0.01372 0.255859,0.0059 0.445311,0.07812 0.828126,0.06252 0.960937,0.257812 0.132813,0.195326 0.02343,1.023438 1.5625,2.804688 1.539062,1.78125 8.242174,9.523438 21.367188,23.835937 13.12501,14.312501 18.43752,19.437501 23.8125,24.375001 5.37502,4.9375 16.06251,14 20.0625,17 4.00003,3 5.08455,4.10839 5.80273,4.28516 0.71815,0.17676 1.19368,0.12051 1.7461,0.52929 0.55241,0.4088 0.79445,0.77474 0.88281,1.15039 0.0884,0.37565 0.16709,0.56345 1.4375,1.48047 1.27056,0.91703 3.40266,2.42994 3.95508,2.94922 0.55241,0.51928 1.67301,1.72412 1.94922,2.00586 0.27628,0.28173 0.88402,0.46352 0.83984,0.63477 -0.0442,0.17125 -0.21987,0.21677 -0.13672,0.37695 0.0828,0.16021 0.0428,0.314 -0.0898,0.24219 -0.13266,-0.0718 -0.31328,-0.39743 -0.61719,-0.38086 -0.30387,0.0166 -0.53648,0.006 -0.75195,-0.13282 -0.21543,-0.1381 -1.78317,-1.49218 -2.01758,-1.66406 -0.23433,-0.17185 -0.50781,-0.29687 -0.75,-0.19531 -0.24227,0.10156 -1.22657,-0.29688 -1.48438,-0.42969 -0.25775,-0.13281 -0.75782,-0.50781 -1.01562,-0.26562 -0.25776,0.24219 0.83616,3.58736 0.96875,5.15625 0.13266,1.5689 0.255,3.13874 0.59766,4.68554 0.34242,1.54679 0.85093,3.35748 0.87304,4.51758 0.0227,1.1601 0.49809,7.30469 0.31055,9.52344 -0.18746,2.21875 -0.46876,2.96875 -0.59375,4.15625 -0.1251,1.1875 -0.10456,2.13199 -0.41406,2.4082 -0.30955,0.27621 -1.25965,0.79501 -1.58008,1.21485 -0.3205,0.41984 -0.62837,-0.044 -1.07031,-0.28711 -0.44194,-0.24306 -1.8452,-0.0993 -3.44727,-0.67383 -1.60203,-0.57453 -3.07188,-0.86141 -3.58008,-1.28125 -0.50823,-0.41985 -1.72435,-3.52474 -2.71875,-5.02735 -0.99435,-1.50259 -2.47388,-3.35983 -3.55664,-4.75195 -1.08276,-1.39211 -2.32021,-3.26968 -3.38086,-4.10937 -1.06068,-0.83969 -3.27073,-3.09304 -4.70703,-5.30274 -1.43633,-2.20971 -8.59581,-11.09264 -12.04297,-14.58398 -3.44711,-3.49134 -25.85247,-24.70623 -28.990231,-27.62305 -3.137802,-2.91682 -10.950408,-10.13098 -12.386719,-11.71094 -1.436311,-1.57994 -2.021157,-2.17583 -2.208984,-2.20898 -0.187805,-0.0333 -1.148822,-0.39825 -2.121094,-1.039063 -0.972272,-0.640819 -1.32624,-0.850451 -1.552734,-0.960938 -0.226508,-0.110475 -0.536659,-0.06675 -0.464844,-0.265625 0.07181,-0.198878 0.563341,-0.05421 0.673828,-0.142578 0.110475,-0.0884 -0.07144,-0.421265 0.779297,-0.25 0.850737,0.171251 1.574219,0.423834 2.136719,0.361328 0.562502,-0.06251 2.582031,0.9375 2.582031,0.9375 0,0 -0.430319,-1.027534 -0.794922,-1.513672 -0.364611,-0.486133 -0.857426,-0.916016 -0.974609,-0.947265 -0.117204,-0.03137 -0.648439,9e-6 -0.9375,-0.351563 -0.289059,-0.351571 -0.625001,-0.617185 -0.632813,-1.101562 -0.0079,-0.484373 -0.240178,-2.095614 -0.207031,-4.669922 0.03326,-2.574312 0.154263,-6.938811 0.02148,-10.695312 -0.132586,-3.756507 -0.05648,-11.791016 0.02148,-11.931641 0.07812,-0.140636 0.273447,-0.304719 0.460938,-0.335938 0.187502,-0.03137 0.437501,0.226527 0.726562,0.171875 0.216794,-0.04102 0.249025,-0.192515 0.439454,-0.232422 z m -0.423828,41.318358 c 0.181528,-0.0395 1.466242,0.19854 1.521484,0.26563 0.05526,0.0671 0.118487,0.66318 0.18164,0.75 0.06312,0.0868 0.198626,0.47354 0.257813,0.77343 0.05919,0.29991 0.594199,2.93968 0.744141,3.5 0.149933,0.56032 0.379826,1.73569 0.482422,2.38282 0.102612,0.64713 0.444751,2.56725 0.589843,3.16992 0.145096,0.60268 1.659668,5.76361 2.291016,7.91015 0.63134,2.14658 2.904442,8.80673 3.472656,10.35352 0.568214,1.5468 4.81287,11.60193 4.970703,11.75977 0.157985,0.15783 0.993916,-0.0333 1.404297,0.15625 0.410377,0.18939 7.119557,3.18981 8.634767,3.93164 1.51521,0.74183 8.63478,5.0957 10.66601,6.50195 2.03127,1.40625 6.11097,4.24551 6.53711,4.49805 0.42618,0.25254 0.77403,0.44726 0.82422,0.44726 0.0503,0 0.18989,0.25672 0.15625,0.35156 -0.034,0.0949 -0.31853,0.17831 -0.43554,0.26758 -0.11717,0.0893 -0.16686,0.40151 -0.26172,0.42383 -0.0949,0.0223 -1.25558,0.04 -2.03125,0.25195 -0.77568,0.21207 -1.56334,0.30162 -1.65821,0.43555 -0.0949,0.13395 -0.0564,0.79688 -0.24609,0.95313 -0.18973,0.15624 -0.29991,0.14538 -0.36719,0.27929 -0.0669,0.13395 -0.12887,0.26701 -0.27929,0.33399 -0.15081,0.067 -4.03487,0.62025 -6.41211,0.87695 -2.37721,0.25671 -7.76756,0.88141 -12.29883,0.9707 -4.531244,0.0893 -9.263651,-0.17773 -9.810549,-0.17773 -0.54686,0 -1.204286,-0.0592 -1.283203,-0.0156 -0.07899,0.0434 -0.06076,0.16953 -0.443359,0.20899 -0.382753,0.0395 -2.2051,-0.14884 -2.414063,-0.0937 l -0.992187,1.17187 c 0,0 -0.647042,1.06 -1.205078,1.75196 -0.558036,0.69196 -1.107423,1.20898 -1.25586,1.41992 -0.08984,0.14453 -0.0727,0.2385 -0.128906,0.33594 -0.06822,0.11814 -1.023437,1.15625 -1.125,1.19531 -0.08202,0.0314 -0.18946,0.0449 -0.291016,0.1582 -0.07812,0.10938 -0.134765,0.25977 -0.134765,0.25977 l -0.804688,1.08984 -0.673828,0.63672 -0.603516,0.54688 -0.78125,0.91406 c 0,0 -0.195314,0.27343 -0.273437,0.27344 -0.07812,0 -0.720703,-0.16627 -0.720703,-0.21094 0,-0.0446 0.09375,-0.19395 0.09375,-0.24414 0,-0.0502 -0.0826,-0.15205 -0.09375,-0.22461 -0.01134,-0.0725 0.326705,-0.5957 0.33789,-0.67383 0.01134,-0.0781 -0.0074,-0.36409 0.0039,-0.41992 0.01134,-0.0558 0.579517,-0.68583 0.724609,-0.88672 0.145096,-0.20088 0.801943,-1.4641 0.88086,-1.73242 0.07892,-0.26831 0.425464,-1.00176 0.457031,-1.21485 0.03175,-0.21309 0.190614,-1.45995 0.269531,-1.75195 0.07892,-0.29201 0.615921,-1.40487 0.742188,-1.73633 0.126272,-0.33146 0.543209,-1.62557 0.519531,-1.95703 -0.02381,-0.33146 -0.07881,-0.91535 -0.0078,-1.17578 0.07102,-0.26045 0.331485,-1.07332 0.386719,-1.35742 0.05526,-0.28411 0.568359,-5.68862 0.568359,-6.49219 0,-0.80357 -0.132283,-7.76785 -0.199218,-8.90625 -0.06697,-1.13839 0.111319,-3.43695 -0.04492,-5.37891 -0.156246,-1.94197 -0.513951,-9.10742 -0.714844,-11.60742 -0.200882,-2.5 -0.758647,-8.63756 -0.892578,-10.95898 -0.133947,-2.32142 -0.46931,-6.31696 -0.402344,-7.34375 0.06697,-1.02678 0.04493,-2.16462 0.201172,-2.87891 0.156246,-0.71429 0.723778,-3.38517 0.806641,-3.53906 0.08285,-0.1539 0.312017,-0.18504 0.359375,-0.23633 0.04736,-0.0513 0.01957,-0.25351 0.201172,-0.29297 z"
       transform="matrix(0.26458333,0,0,0.26458333,76.144753,39.592384)"
       id="path4529"
       inkscape:connector-curvature="0" />
  </g>
</svg>
