<?xml version="1.0" encoding="UTF-8" standalone="no"?>
<svg
   xmlns:osb="http://www.openswatchbook.org/uri/2009/osb"
   xmlns:dc="http://purl.org/dc/elements/1.1/"
   xmlns:cc="http://creativecommons.org/ns#"
   xmlns:rdf="http://www.w3.org/1999/02/22-rdf-syntax-ns#"
   xmlns:svg="http://www.w3.org/2000/svg"
   xmlns="http://www.w3.org/2000/svg"
   xmlns:xlink="http://www.w3.org/1999/xlink"
   xmlns:sodipodi="http://sodipodi.sourceforge.net/DTD/sodipodi-0.dtd"
   xmlns:inkscape="http://www.inkscape.org/namespaces/inkscape"
   width="24"
   height="24"
   fill-rule="evenodd"
   clip-rule="evenodd"
   version="1.1"
   id="svg4"
   sodipodi:docname="spotify.svg"
   inkscape:version="0.92.3 (2405546, 2018-03-11)">
  <metadata
     id="metadata10">
    <rdf:RDF>
      <cc:Work
         rdf:about="">
        <dc:format>image/svg+xml</dc:format>
        <dc:type
           rdf:resource="http://purl.org/dc/dcmitype/StillImage" />
      </cc:Work>
    </rdf:RDF>
  </metadata>
  <defs
     id="defs8">
    <linearGradient
       id="linearGradient819"
       osb:paint="solid">
      <stop
         style="stop-color:#ffffff;stop-opacity:1;"
         offset="0"
         id="stop817" />
    </linearGradient>
    <linearGradient
       inkscape:collect="always"
       xlink:href="#linearGradient819"
       id="linearGradient821"
       x1="0"
       y1="12"
       x2="24"
       y2="12"
       gradientUnits="userSpaceOnUse" />
  </defs>
  <sodipodi:namedview
     pagecolor="#ffffff"
     bordercolor="#666666"
     borderopacity="1"
     objecttolerance="10"
     gridtolerance="10"
     guidetolerance="10"
     inkscape:pageopacity="0"
     inkscape:pageshadow="2"
     inkscape:window-width="1920"
     inkscape:window-height="1013"
     id="namedview6"
     showgrid="false"
     inkscape:zoom="9.8333333"
     inkscape:cx="12"
     inkscape:cy="12"
     inkscape:window-x="-9"
     inkscape:window-y="-9"
     inkscape:window-maximized="1"
     inkscape:current-layer="svg4" />
  <path
     d="M19 0c2.762 0 5 2.239 5 5v14c0 2.761-2.238 5-5 5h-14c-2.761 0-5-2.239-5-5v-14c0-2.761 2.239-5 5-5h14zm-7 4c-4.418 0-8 3.582-8 8 0 4.419 3.582 8 8 8s8-3.581 8-8c0-4.418-3.582-8-8-8zm3.669 11.539c-.144.236-.451.31-.686.166-1.878-1.148-4.243-1.408-7.028-.772-.268.062-.535-.106-.597-.375-.061-.268.106-.535.375-.596 3.048-.697 5.662-.397 7.771.891.235.144.309.451.165.686zm.979-2.178c-.181.293-.565.385-.858.205-2.15-1.322-5.428-1.704-7.972-.932-.33.099-.678-.087-.778-.416-.1-.33.086-.677.416-.778 2.905-.881 6.517-.454 8.987 1.063.293.181.385.565.205.858zm.084-2.269c-2.578-1.531-6.832-1.672-9.294-.925-.395.12-.813-.103-.933-.498-.12-.396.103-.814.499-.934 2.826-.858 7.523-.692 10.492 1.07.356.211.472.671.262 1.026-.211.355-.671.472-1.026.261z"
     id="path2"
     style="fill-opacity:1;fill:url(#linearGradient821)" />
</svg>
